<svg width="20" height="20" viewBox="0 0 20 20" fill="none" xmlns="http://www.w3.org/2000/svg">
<path d="M5.06635 4.01002C4.75631 4.36777 4.79499 4.90909 5.15274 5.21913L9.43846 8.93342C9.7606 9.21263 10.239 9.21263 10.5612 8.93342L14.8469 5.21913C15.2046 4.90909 15.2433 4.36777 14.9333 4.01002C14.6232 3.65227 14.0819 3.61363 13.7242 3.92367L9.99981 7.15142L6.27546 3.92367C5.91774 3.61363 5.37639 3.65231 5.06635 4.01002ZM5.06635 15.9899C4.75631 15.6321 4.79499 15.0908 5.15274 14.7808L9.43846 11.0665C9.7606 10.7873 10.239 10.7873 10.5612 11.0665L14.8469 14.7808C15.2046 15.0908 15.2433 15.6321 14.9333 15.9899C14.6232 16.3476 14.0819 16.3863 13.7242 16.0762L9.99981 12.8485L6.27546 16.0762C5.91774 16.3863 5.37639 16.3476 5.06635 15.9899Z" fill="#73D34D"/>
</svg>
