<svg width="17" height="17" viewBox="0 0 17 17" fill="none" xmlns="http://www.w3.org/2000/svg">
<path d="M3.38867 14.0543C3.38867 12.5815 4.58259 11.3876 6.05535 11.3876H8.7219V14.0543C8.7219 15.527 7.52811 16.7209 6.05535 16.7209C4.58259 16.7209 3.38867 15.527 3.38867 14.0543Z" fill="#24CB71"/>
<path d="M8.72266 0.720947V6.05417H11.3893C12.8621 6.05417 14.056 4.86038 14.056 3.38763C14.056 1.91487 12.8621 0.720947 11.3893 0.720947H8.72266Z" fill="#FF7237"/>
<path d="M11.3659 11.3876C12.8386 11.3876 14.0325 10.1937 14.0325 8.72097C14.0325 7.24822 12.8386 6.05432 11.3659 6.05432C9.89312 6.05432 8.69922 7.24822 8.69922 8.72097C8.69922 10.1937 9.89312 11.3876 11.3659 11.3876Z" fill="#00B6FF"/>
<path d="M3.38867 3.38762C3.38867 4.86038 4.58259 6.0543 6.05535 6.0543H8.7219V0.720947H6.05535C4.58259 0.720947 3.38867 1.91487 3.38867 3.38762Z" fill="#FF3737"/>
<path d="M3.38867 8.72087C3.38867 10.1936 4.58259 11.3875 6.05535 11.3875H8.7219V6.05432H6.05535C4.58259 6.05432 3.38867 7.24811 3.38867 8.72087Z" fill="#874FFF"/>
</svg>
