<svg width="16" height="16" viewBox="0 0 16 16" fill="none" xmlns="http://www.w3.org/2000/svg">
<path d="M3.6665 0.666748C3.11422 0.666748 2.6665 1.11446 2.6665 1.66675V14.3334C2.6665 14.8857 3.11422 15.3334 3.6665 15.3334H12.3332C12.8855 15.3334 13.3332 14.8857 13.3332 14.3334V4.66675L9.33317 0.666748H3.6665Z" fill="#F4B70A"/>
<path d="M3.6665 15.3334C3.11422 15.3334 2.6665 14.8857 2.6665 14.3334V14.1667C2.6665 14.719 3.11422 15.1667 3.6665 15.1667H12.3332C12.8855 15.1667 13.3332 14.719 13.3332 14.1667V14.3334C13.3332 14.8857 12.8855 15.3334 12.3332 15.3334H3.6665Z" fill="#EFA904"/>
<path d="M3.6665 0.666748C3.11422 0.666748 2.6665 1.11446 2.6665 1.66675V1.83341C2.6665 1.28113 3.11422 0.833415 3.6665 0.833415H9.49984L9.33317 0.666748H3.6665Z" fill="#F6C028"/>
<path d="M13.3335 8.08325V4.66659L12.7501 4.08325H9.93702C9.7143 4.08325 9.60276 4.35254 9.76025 4.51003L13.3335 8.08325Z" fill="url(#paint0_linear_1_9361)"/>
<path d="M9.3335 0.666748L13.3335 4.66675H10.3335C9.78121 4.66675 9.3335 4.21903 9.3335 3.66675V0.666748Z" fill="#FADC87"/>
<path fill-rule="evenodd" clip-rule="evenodd" d="M5.66683 7.33325C5.48273 7.33325 5.3335 7.48249 5.3335 7.66659V12.3333C5.3335 12.5173 5.48273 12.6666 5.66683 12.6666H10.3335C10.5176 12.6666 10.6668 12.5173 10.6668 12.3333V7.66659C10.6668 7.48249 10.5176 7.33325 10.3335 7.33325H5.66683ZM10.0002 8.83325H6.00016V11.1666H10.0002V8.83325Z" fill="white"/>
<defs>
<linearGradient id="paint0_linear_1_9361" x1="11.51" y1="8.08325" x2="11.51" y2="3.99992" gradientUnits="userSpaceOnUse">
<stop stop-color="#F4B70A"/>
<stop offset="1" stop-color="#E2930A"/>
</linearGradient>
</defs>
</svg>
