<svg width="32" height="32" viewBox="0 0 32 32" fill="none" xmlns="http://www.w3.org/2000/svg">
<rect width="32" height="32" rx="16" fill="#FAFAFA"/>
<path d="M18.2061 8.03647C19.317 7.94301 19.6035 8.00576 20.3018 8.50326L23.1895 10.4935C23.666 10.8358 23.8252 10.9299 23.8252 11.3031V22.221C23.8252 22.9053 23.5702 23.3105 22.6816 23.3724L12.1758 23.9945C11.5088 24.0257 11.1911 23.9322 10.8418 23.4964L8.71484 20.7904C8.33396 20.2924 8.17582 19.9196 8.17578 19.4837V9.77865C8.17578 9.21914 8.42992 8.75186 9.15918 8.68979L18.2061 8.03647ZM22.2373 11.6449L11.9219 12.2357C11.5412 12.2671 11.4141 12.4544 11.4141 12.8587V22.1283C11.4142 22.6262 11.6681 22.8124 12.2393 22.7816L22.1113 22.221C22.6823 22.1901 22.746 21.8481 22.7461 21.4437V12.2357C22.746 11.8318 22.5871 11.6138 22.2373 11.6449ZM21.1572 13.3558C21.2204 13.636 21.1573 13.9161 20.8711 13.9476L20.3955 14.0404V20.8831C19.9828 21.1007 19.6024 21.2258 19.2852 21.2259C18.7771 21.2259 18.6491 21.0702 18.2686 20.6038L15.1572 15.8128V20.4486L16.1426 20.6663C16.1424 20.6803 16.1318 21.2259 15.3477 21.2259L13.1582 21.3499C13.0949 21.2253 13.1583 20.9154 13.3799 20.8529L13.9521 20.6976V14.5687L13.1582 14.5072C13.0946 14.2269 13.2535 13.8227 13.6982 13.7913L16.0469 13.6361L19.2852 18.4886V14.1956L18.459 14.1029C18.3956 13.7603 18.6494 13.5117 18.9668 13.4808L21.1572 13.3558ZM18.5869 8.90756L9.88965 9.52963C9.57245 9.56048 9.50843 9.71646 9.63477 9.84115L10.874 10.805C11.3814 11.2092 11.5717 11.1789 12.5244 11.1165L21.5068 10.5872C21.6973 10.5872 21.5391 10.4005 21.4756 10.3695L19.9834 9.31186C19.6976 9.09425 19.3166 8.84523 18.5869 8.90756Z" fill="black"/>
</svg>
