<svg width="67" height="27" viewBox="0 0 67 27" fill="none" xmlns="http://www.w3.org/2000/svg">
<path d="M7.75977 0.914039C7.89158 0.569092 8.05623 0.487125 8.25391 0.667945C8.3857 0.750215 8.50148 0.930937 8.56738 1.16111C8.64972 1.4076 8.69833 1.57218 8.71484 1.67088C8.78077 1.95046 9.42371 3.38162 10.6104 5.94724C11.0883 6.91757 11.5997 8.2003 12.1436 9.76267C12.3743 10.4535 13.0333 11.9338 14.1045 14.2197C14.6482 15.3377 15.0109 16.1104 15.1758 16.5381C15.5548 17.3768 16.5766 19.4004 18.2412 22.6074L18.6699 23.4951L18.6865 23.5117C19.2304 24.7287 19.6583 25.5021 19.9385 25.831C20.0537 26.0611 20.1201 26.2252 20.1201 26.291C20.1201 26.4719 19.906 26.5703 19.4775 26.5703H16.9062C16.8239 26.5702 16.7248 26.4885 16.626 26.3242C16.5271 26.1434 16.4448 25.9788 16.3789 25.8144C16.313 25.65 16.2467 25.5018 16.1973 25.3867C16.0819 25.14 15.8512 24.5973 15.5381 23.7422C15.2249 22.887 14.9783 22.1955 14.8135 21.7021C14.7475 21.4719 14.5988 21.1105 14.3848 20.6504C14.1705 20.1734 14.0217 19.8604 13.9229 19.6631C13.824 19.3672 13.7416 19.1865 13.6592 19.0879C13.5768 18.9892 13.445 18.9394 13.2803 18.9394C13.1155 18.9394 12.9014 18.9562 12.6543 18.9726C12.4071 18.9891 12.1269 19.0216 11.8467 19.0381C11.6654 19.0874 11.0718 19.1045 10.0664 19.1045C9.37443 19.1045 8.68247 19.1206 8.02344 19.1699C7.80918 19.2028 7.42962 19.2031 6.88574 19.2031L4.99023 19.1699C4.87504 19.17 4.79242 19.2198 4.72656 19.3183C4.66082 19.4169 4.6112 19.5318 4.59473 19.6631C4.57856 19.7921 4.53112 19.9689 4.5293 19.9756L4.31445 20.8642C4.24855 21.193 4.1496 21.5709 4.05078 22.0146C3.95189 22.4587 3.85303 22.8707 3.78711 23.249L3.3916 24.7783L3.11133 25.8144C3.04549 26.11 2.9799 26.2907 2.91406 26.373C2.86464 26.4717 2.7657 26.5048 2.65039 26.5049H0.541016C0.425648 26.5049 0.359375 26.4551 0.359375 26.3564C0.35982 26.3223 0.409373 26.1416 0.507812 25.8633C0.689067 25.4193 0.853649 24.975 1.00195 24.5146C1.87542 21.5709 2.40258 19.6467 2.56738 18.7422C2.78163 17.5416 3.22752 16.0124 3.88672 14.1377C4.10096 13.3318 4.29833 12.6078 4.49609 11.9336C4.56201 11.5882 4.66127 11.1936 4.80957 10.7168C5.25456 9.05571 5.71615 7.49314 6.16113 6.04588L7.05078 3.20017C7.23207 2.4602 7.47963 1.70334 7.75977 0.914039ZM22.543 1.70408C22.6419 1.70408 22.7577 1.72001 22.873 1.75291C22.9882 1.78572 23.0868 1.80268 23.1855 1.80271C23.3668 1.80271 23.5978 1.78595 23.8779 1.76951C24.1581 1.73662 24.4386 1.73728 24.7188 1.73728L26.1191 1.76951C27.454 1.76951 28.6573 1.83507 29.7285 1.95017C29.8109 1.95017 30.1407 1.96726 30.668 2.01658C31.2118 2.06592 31.9046 2.31194 32.7451 2.77244C33.6021 3.2329 34.4915 3.87502 35.4473 4.69724L35.415 4.73045C36.8157 5.96385 37.7388 7.44385 38.2002 9.13767C38.6452 10.8316 38.876 12.7068 38.876 14.7461C38.8759 15.815 38.7112 17.0156 38.3486 18.3476C37.9861 19.6797 37.4915 20.9131 36.8652 22.0478C36.239 23.1991 35.5134 24.0383 34.6729 24.581C33.5357 25.321 32.1183 25.8309 30.4209 26.1269C28.7234 26.4229 27.3884 26.5703 26.416 26.5703H22.7734C22.5099 26.5702 22.3452 26.5047 22.2793 26.3896C22.2135 26.2745 22.2134 26.143 22.2793 25.9951C22.3122 25.9294 22.3125 25.8308 22.3125 25.7158C22.3125 25.6171 22.2959 25.4849 22.2959 25.3369C22.2795 25.1889 22.2793 24.9589 22.2793 24.6797C22.2793 23.8902 22.2626 23.1169 22.2461 22.3603L22.1807 15.9131L22.2139 8.74314C22.2139 8.11818 22.1971 7.50919 22.1807 6.93357C22.1642 6.3581 22.1307 5.8484 22.1143 5.42088L22.0488 3.16795C22.0818 2.62547 22.1147 2.24704 22.1641 2.03318C22.2135 1.81938 22.296 1.70408 22.4443 1.70408H22.543ZM42.9971 1.09568C43.1124 1.09568 43.2114 1.11244 43.2773 1.12888C43.5739 1.14532 43.887 1.14451 44.1836 1.14451C44.4803 1.12806 44.7447 1.12888 44.959 1.12888C45.4696 1.12889 45.865 1.14467 46.0957 1.16111H46.1289C46.4255 1.194 46.6229 1.24409 46.7383 1.34275C46.8536 1.44142 46.9199 1.57287 46.9199 1.73728C46.9199 1.85234 46.9032 1.98392 46.8867 2.13181C46.8702 2.27973 46.8378 2.41128 46.8213 2.52634C46.5576 4.53279 46.4091 6.62173 46.3926 8.75974C46.3596 9.36822 46.3594 10.3219 46.3594 11.6045L46.3926 15.914C46.4255 16.2593 46.4258 16.6375 46.4258 17.0156L46.458 18.4463C46.5075 19.6797 46.5244 20.6013 46.5244 21.1933C46.5244 21.6536 46.5077 21.917 46.4912 22.0156C46.4584 22.1145 46.458 22.3779 46.458 22.8379L46.4912 24.7949C46.5241 25.0744 46.5244 25.4359 46.5244 25.8633C46.5574 26.1757 46.4585 26.3738 46.2607 26.456C46.063 26.5382 45.7827 26.5545 45.4531 26.5381H42.2061C41.86 26.5709 41.6291 26.4885 41.5303 26.3076C41.4315 26.1267 41.3661 25.8473 41.3496 25.4365C41.3002 25.272 41.3162 24.8273 41.415 24.1201C41.5139 23.4624 41.5635 22.887 41.5635 22.4101C41.5635 22.2457 41.6457 20.6334 41.8105 17.5908C41.9588 15.3548 42.0244 14.1379 42.0244 13.9238L42.0908 10.4209L42.1572 7.18064L42.2227 5.25681L42.2891 3.97361V2.47752C42.2891 1.55666 42.5193 1.09582 42.9971 1.09568ZM65.2119 0.223609C65.5415 0.207163 65.7726 0.257078 65.9209 0.388649C66.0691 0.520204 66.1357 0.733579 66.1357 1.04588C66.1357 1.14455 66.1188 1.40831 66.0693 1.83591C66.0199 2.18287 66.0039 4.55098 66.0039 8.92381V16.9824C66.0039 18.1993 66.0198 19.5315 66.0527 20.9951C66.1022 22.4588 66.1351 23.7747 66.1846 24.9424V24.9258C66.201 25.4518 66.2343 25.7809 66.2344 25.9619C66.2179 26.2908 66.0365 26.4716 65.6904 26.4717C65.5256 26.4717 65.3771 26.4559 65.2617 26.4394C65.1628 26.4065 64.9648 26.4062 64.6846 26.4062C64.4044 26.4062 63.9597 26.4224 63.334 26.4717C62.6748 26.521 62.2129 26.5381 61.9492 26.5381C61.4878 26.5381 61.1585 26.4387 60.9277 26.2578C60.7135 26.0604 60.4661 25.715 60.2354 25.2217L59.625 24.0049C58.9164 22.4097 58.2733 21.1594 57.7295 20.2549C57.4161 19.7281 56.6417 18.2973 55.373 15.9463L53.8076 12.9863V15.1572C53.8076 15.3381 53.791 15.5848 53.791 15.8642C53.7745 16.1602 53.7747 16.4732 53.8076 16.8349C53.8076 18.0684 53.8235 19.6967 53.8564 21.6865C53.8894 23.6763 53.9556 24.8769 54.0215 25.2881C54.0544 25.4032 54.0547 25.5514 54.0547 25.7158C54.0546 25.9458 54.005 26.0934 53.9062 26.1592C53.8238 26.2085 53.6426 26.2254 53.3789 26.209C52.9998 26.209 52.5548 26.2251 52.0439 26.2744C51.5331 26.3237 51.0387 26.3735 50.5938 26.4228C50.2478 26.4721 50.0168 26.4064 49.9014 26.2422C49.786 26.0777 49.7531 25.7152 49.7695 25.1396C49.7695 24.2844 49.7202 22.7879 49.6543 20.6172C49.5554 18.3476 49.4891 16.3905 49.4727 14.7295C49.4727 13.0519 49.522 11.3245 49.5879 9.59763C49.6373 7.41062 49.6543 5.91421 49.6543 5.10838C49.6543 4.02297 49.605 3.217 49.5391 2.72361C49.4896 2.29612 49.4727 2.01652 49.4727 1.90134C49.4727 1.47374 49.5392 1.17729 49.6875 1.02927C49.8357 0.881535 50.0333 0.799862 50.2637 0.799781C50.379 0.799781 50.6101 0.815405 50.9727 0.815406C51.3352 0.831853 51.8466 0.750377 52.5059 0.585914C52.7694 0.536624 53.0333 0.519508 53.2969 0.519508C53.4452 0.519508 53.6428 0.519853 53.9062 0.552711C54.1699 0.585596 54.516 0.585914 54.9443 0.585914C55.4881 0.585914 55.95 0.799123 56.3125 1.22654C56.6916 1.65414 57.0871 2.24669 57.5156 3.03611L57.8779 3.67771C58.1581 4.20398 58.505 4.7634 58.917 5.35545L59.4443 6.17771V4.2197C59.4443 2.73982 59.4601 1.83539 59.4766 1.47361C59.4766 1.01314 59.6253 0.750019 59.9385 0.651344C60.2351 0.552676 60.6967 0.502906 61.29 0.502906C61.8009 0.502903 62.4768 0.486653 63.3008 0.420875C64.1245 0.355117 64.7505 0.289368 65.2119 0.223609ZM28.1631 6.90134C28.0807 8.069 28.0479 9.6806 28.0479 11.7197C28.0479 11.9171 28.0972 12.9695 28.1631 14.8935C28.2455 15.6993 28.2783 16.4725 28.2783 17.1797L28.2451 21.7851C28.2122 22.4924 28.2129 23.6439 28.2129 25.206C29.8608 25.3046 31.3606 25.008 32.7119 24.3174C34.0139 23.6431 35.102 22.541 35.959 20.9951C36.8159 19.4492 37.2441 17.3112 37.2441 14.7129C37.2441 12.1146 36.816 10.0094 35.9756 8.43064C35.135 6.8518 34.0629 5.66733 32.7773 4.87791C31.459 4.08866 29.9759 3.67757 28.3115 3.66111L28.1631 6.90134ZM8.2373 6.57224C8.17139 6.57232 8.08922 6.75347 8.00684 7.11521C7.92447 7.47683 7.85802 7.75664 7.80859 7.93748C7.38019 9.31865 7.08349 10.371 6.88574 11.0781C6.78686 11.4235 6.65492 11.8681 6.47363 12.3779C6.29253 12.8872 6.16067 13.2323 6.09473 13.4297C6.0288 13.6764 5.99609 13.8578 5.99609 14.0058C5.99615 14.1537 6.09472 14.2196 6.30859 14.2197C6.81948 14.2197 7.578 14.2028 8.61621 14.1699C9.65452 14.1206 10.2978 14.0884 10.5615 14.039C10.726 14.0062 10.874 14.0058 10.9893 14.0058C11.1018 14.0058 11.2618 13.9742 11.2695 13.9726H11.2861C11.3685 13.9397 11.4014 13.9067 11.4014 13.8574C11.4012 13.808 11.3519 13.7258 11.2861 13.5781C11.1707 13.3478 10.8903 12.7395 10.4619 11.7695C10.0334 10.7992 9.73708 10.0422 9.57227 9.54881C9.32507 8.97323 9.14357 8.49639 9.01172 8.11814C8.87987 7.73988 8.78077 7.47612 8.71484 7.3281C8.66549 7.19682 8.61657 7.08169 8.55078 6.96677C8.48494 6.8518 8.43512 6.75326 8.38574 6.68748C8.3363 6.60525 8.28675 6.57224 8.2373 6.57224Z" fill="white"/>
</svg>
